<svg width="124" height="41" viewBox="0 0 124 41" fill="none" xmlns="http://www.w3.org/2000/svg">
<g clip-path="url(#clip0_2376_18708)">
<path d="M0 19.9981L14.8131 16.7117L24.8459 19.9981H0Z" fill="url(#paint0_linear_2376_18708)"/>
<path d="M0 19.9982L14.8324 23.2846L24.8459 19.9982H0Z" fill="url(#paint1_linear_2376_18708)"/>
<path d="M4.8092 0L14.8131 16.7117L24.8459 19.9982L4.8092 0Z" fill="url(#paint2_linear_2376_18708)"/>
<path d="M4.85739 40.0542L14.8324 23.2846L24.8459 19.9982L4.85739 40.0542Z" fill="url(#paint3_linear_2376_18708)"/>
<path d="M33.8182 27.3134V12.8363H36.7689V14.5357H37.23C37.5066 14.0219 37.9413 13.574 38.5473 13.1788C39.1532 12.7837 39.9699 12.5861 40.9974 12.5861C42.0249 12.5861 42.9207 12.81 43.5793 13.2447C44.2248 13.6794 44.7253 14.2459 45.0547 14.9308H45.5157C45.845 14.259 46.3324 13.7058 46.9647 13.2579C47.597 12.81 48.4928 12.5861 49.6652 12.5861C50.6005 12.5861 51.4304 12.7705 52.1417 13.1657C52.853 13.5477 53.4326 14.1141 53.8542 14.865C54.2757 15.6158 54.4996 16.5511 54.4996 17.6708V27.3002H51.4962V17.9079C51.4962 17.0253 51.2591 16.3535 50.7849 15.8661C50.3107 15.3787 49.6257 15.1416 48.7563 15.1416C47.821 15.1416 47.0701 15.4446 46.5037 16.0505C45.9373 16.6565 45.6606 17.5259 45.6606 18.6588V27.287H42.644V17.9079C42.644 17.0253 42.4069 16.3535 41.9327 15.8661C41.4585 15.3787 40.7735 15.1416 39.9041 15.1416C38.9688 15.1416 38.2179 15.4446 37.6515 16.0505C37.0851 16.6565 36.8084 17.5259 36.8084 18.6588V27.287H33.8182V27.3134Z" fill="#030303"/>
<path d="M62.0609 27.7217C61.0334 27.7217 60.1113 27.5505 59.3077 27.1948C58.5042 26.8392 57.8587 26.3254 57.3845 25.6404C56.9102 24.9554 56.6731 24.1255 56.6731 23.1507C56.6731 22.176 56.9102 21.3329 57.3845 20.6742C57.8587 20.0156 58.5173 19.5282 59.3341 19.1989C60.164 18.8695 61.0992 18.6983 62.1399 18.6983H66.5133V17.763C66.5133 16.92 66.263 16.2481 65.7493 15.7344C65.2487 15.2206 64.4715 14.9704 63.4177 14.9704C62.3638 14.9704 61.5998 15.2207 61.0597 15.7081C60.5196 16.1954 60.1508 16.8277 59.9795 17.6181L57.1869 16.7092C57.424 15.932 57.7928 15.2206 58.3066 14.5752C58.8203 13.9429 59.5053 13.4291 60.3615 13.0339C61.2178 12.6388 62.2453 12.4412 63.4572 12.4412C65.3146 12.4412 66.7899 12.9286 67.8569 13.877C68.9239 14.8386 69.464 16.1954 69.464 17.9606V23.9148C69.464 24.5075 69.7407 24.7974 70.2807 24.7974H71.5058V27.3266H69.2533C68.5683 27.3266 68.015 27.1553 67.5935 26.7996C67.1719 26.444 66.9612 25.9697 66.9612 25.3638V25.2716H66.5265C66.3684 25.5614 66.1445 25.9039 65.8283 26.2991C65.5122 26.6942 65.0643 27.0236 64.4583 27.3134C63.8392 27.5768 63.0488 27.7349 62.0609 27.7217ZM62.4956 25.2321C63.6943 25.2321 64.6691 24.8896 65.4068 24.1914C66.1444 23.4932 66.5133 22.5448 66.5133 21.3329V21.0431H62.3243C61.5339 21.0431 60.8885 21.2143 60.4011 21.5568C59.9137 21.8993 59.6765 22.3999 59.6765 23.0717C59.6765 23.7435 59.9268 24.2704 60.4406 24.6524C60.928 25.0345 61.6261 25.2321 62.4956 25.2321Z" fill="#030303"/>
<path d="M77.2493 33.2676C76.2218 33.2676 75.3787 33.1096 74.7333 32.7934C74.0878 32.4773 73.6004 32.0557 73.2842 31.5288C72.9681 31.0019 72.8232 30.4223 72.8232 29.8032C72.8232 29.0391 73.0076 28.4463 73.3764 28.0116C73.7453 27.5769 74.0878 27.2871 74.4303 27.1291V26.7207C74.1141 26.5231 73.8243 26.2333 73.5477 25.8381C73.2711 25.4429 73.1262 24.9292 73.1262 24.2837C73.1262 23.5987 73.2974 23.0455 73.6399 22.6371C73.9824 22.2287 74.3512 21.9389 74.7596 21.7545V21.2539L76.8541 22.5449C76.5379 22.5844 76.2745 22.703 76.0374 22.8874C75.8003 23.0718 75.6817 23.3748 75.6817 23.7831C75.6817 24.1915 75.8266 24.4945 76.1032 24.6921C76.3799 24.8897 76.7355 24.9819 77.1702 24.9819H81.57C83.1639 24.9819 84.3758 25.3244 85.2189 26.0225C86.062 26.7207 86.4703 27.6955 86.4703 28.9469V29.184C86.4703 30.4355 86.0488 31.4234 85.2189 32.1611C84.3758 32.8988 83.1639 33.2676 81.57 33.2676H77.2493ZM79.0803 22.9928C77.987 22.9928 77.0253 22.7952 76.1691 22.4C75.3129 21.9916 74.641 21.412 74.1405 20.6216C73.6399 19.8444 73.4028 18.8828 73.4028 17.7368V17.6182C73.4028 16.4853 73.6531 15.5237 74.1405 14.7597C74.6279 13.9957 75.2997 13.4029 76.1559 13.0077C76.999 12.6125 77.9606 12.4149 79.0276 12.4149C79.4755 12.4149 79.897 12.4544 80.3054 12.5466C80.7138 12.6389 81.0694 12.7311 81.3856 12.8233H86.3122V15.2076H83.8357V15.6159C84.0333 15.9057 84.1914 16.2482 84.31 16.6434C84.4417 17.0386 84.4944 17.4733 84.4944 17.9607C84.4944 19.5678 83.9938 20.8061 82.9927 21.6755C81.9915 22.5581 80.6874 22.9928 79.0803 22.9928ZM77.4205 30.8043H81.8203C82.4394 30.8043 82.9268 30.6594 83.2825 30.3828C83.6381 30.093 83.8094 29.6978 83.8094 29.1709C83.8094 28.6439 83.6381 28.2092 83.2825 27.9326C82.9268 27.656 82.4394 27.5242 81.8203 27.5242H77.4205C76.8014 27.5242 76.314 27.656 75.9583 27.9326C75.6027 28.2092 75.4314 28.6176 75.4314 29.1709C75.4314 29.7241 75.6027 30.1061 75.9583 30.3828C76.3008 30.6594 76.8014 30.8043 77.4205 30.8043ZM79.0803 20.5294C79.9234 20.5294 80.6084 20.2791 81.1485 19.7522C81.6886 19.2385 81.9652 18.5403 81.9652 17.6841C81.9652 16.8278 81.6886 16.1297 81.1485 15.6159C80.6084 15.1022 79.9102 14.8387 79.0803 14.8387C78.2504 14.8387 77.5523 15.089 77.0122 15.6159C76.4721 16.1297 76.1955 16.8278 76.1955 17.6841C76.1955 18.5403 76.4721 19.2385 77.0122 19.7522C77.5523 20.266 78.2372 20.5294 79.0803 20.5294Z" fill="#030303"/>
<path d="M88.2091 33.1885V12.8495H91.0676V14.9308H91.5155C91.8712 14.2854 92.4113 13.7058 93.1489 13.2052C93.8735 12.6915 94.9141 12.4412 96.2709 12.4412C97.4301 12.4412 98.5103 12.731 99.4719 13.3237C100.447 13.9165 101.224 14.7596 101.817 15.8661C102.41 16.9726 102.712 18.3031 102.712 19.8707V20.3054C102.712 21.873 102.423 23.2034 101.843 24.31C101.263 25.4165 100.473 26.2596 99.4983 26.8523C98.5235 27.4451 97.4433 27.7349 96.2841 27.7349C95.3752 27.7349 94.6111 27.6164 93.992 27.3792C93.3729 27.1421 92.8723 26.8523 92.4903 26.4835C92.1083 26.1278 91.8053 25.7458 91.5814 25.3506H91.1203V33.1885H88.2091ZM95.4015 25.0872C96.6793 25.0872 97.7331 24.6656 98.5367 23.8226C99.3402 22.9795 99.7486 21.7808 99.7486 20.2132V19.9497C99.7486 18.4085 99.3402 17.2098 98.5235 16.3667C97.7068 15.5236 96.6661 15.1021 95.4015 15.1021C94.1369 15.1021 93.1358 15.5236 92.3059 16.3667C91.4892 17.2098 91.0808 18.4085 91.0808 19.9497V20.2132C91.0808 21.7808 91.4892 22.9795 92.3059 23.8226C93.1358 24.6656 94.1633 25.0872 95.4015 25.0872Z" fill="#030303"/>
<path d="M106.453 10.8736C105.874 10.8736 105.373 10.6892 104.978 10.294C104.583 9.91199 104.385 9.4246 104.385 8.81864C104.385 8.21269 104.583 7.71212 104.978 7.34328C105.373 6.96127 105.861 6.76367 106.453 6.76367C107.033 6.76367 107.547 6.9481 107.942 7.34328C108.324 7.7253 108.522 8.21269 108.522 8.81864C108.522 9.4246 108.324 9.92516 107.942 10.294C107.547 10.676 107.059 10.8736 106.453 10.8736ZM104.939 27.3134V12.8364H107.942V27.3002L104.939 27.3134Z" fill="#030303"/>
<path d="M117.19 27.7217C115.727 27.7217 114.463 27.4187 113.369 26.7996C112.276 26.1805 111.433 25.3111 110.814 24.1914C110.195 23.0717 109.892 21.7544 109.892 20.2659V19.9102C109.892 18.4085 110.195 17.0912 110.801 15.9583C111.407 14.8386 112.25 13.9692 113.317 13.3501C114.397 12.731 115.648 12.428 117.058 12.428C118.481 12.428 119.64 12.731 120.694 13.3501C121.734 13.9692 122.551 14.8254 123.131 15.9188C123.71 17.0122 124 18.3031 124 19.7653V20.9113H112.961C113.001 22.1891 113.422 23.2034 114.226 23.9543C115.029 24.7051 116.03 25.0871 117.242 25.0871C118.375 25.0871 119.218 24.8237 119.798 24.3231C120.364 23.8094 120.812 23.2298 121.115 22.558L123.592 23.8489C123.315 24.4021 122.92 24.9686 122.419 25.5745C121.905 26.1805 121.234 26.6811 120.391 27.1026C119.561 27.511 118.494 27.7217 117.19 27.7217ZM120.944 18.5929C120.865 17.4995 120.483 16.6433 119.785 16.0242C119.086 15.405 118.164 15.1021 117.045 15.1021C115.925 15.1021 115.003 15.405 114.292 16.0242C113.58 16.6433 113.145 17.4995 112.987 18.5929H120.944Z" fill="#030303"/>
</g>
<defs>
<linearGradient id="paint0_linear_2376_18708" x1="12.1213" y1="16.0319" x2="12.3278" y2="18.757" gradientUnits="userSpaceOnUse">
<stop stop-color="#7138EB"/>
<stop offset="1" stop-color="#9F66D8"/>
</linearGradient>
<linearGradient id="paint1_linear_2376_18708" x1="14.1383" y1="26.2363" x2="14.2292" y2="26.5667" gradientUnits="userSpaceOnUse">
<stop stop-color="#7138EB"/>
<stop offset="1" stop-color="#9F66D8"/>
</linearGradient>
<linearGradient id="paint2_linear_2376_18708" x1="12.837" y1="15.8011" x2="15.1033" y2="9.18722" gradientUnits="userSpaceOnUse">
<stop stop-color="#7138EB"/>
<stop offset="1" stop-color="#9F66D8"/>
</linearGradient>
<linearGradient id="paint3_linear_2376_18708" x1="9.88104" y1="31.6509" x2="21.1975" y2="26.1741" gradientUnits="userSpaceOnUse">
<stop stop-color="#7138EB"/>
<stop offset="1" stop-color="#9F66D8"/>
</linearGradient>
<clipPath id="clip0_2376_18708">
<rect width="124" height="40.0542" fill="white"/>
</clipPath>
</defs>
</svg>
