<svg width="190" height="61" fill="none" xmlns="http://www.w3.org/2000/svg"><path d="m79.42 23.14-4.98 14.04h-4.28l-4.98-14.04h3.64l3.48 10.6 3.5-10.6h3.62Zm2.35 1.72c-.6 0-1.1-.17-1.48-.52-.37-.36-.56-.8-.56-1.32 0-.53.19-.97.56-1.32a2.1 2.1 0 0 1 1.48-.54c.59 0 1.07.18 1.44.54.39.35.58.8.58 1.32s-.2.96-.58 1.32a2 2 0 0 1-1.44.52Zm1.7 1.16v11.16h-3.42V26.02h3.42Zm6.22 11.32c-.98 0-1.84-.16-2.6-.5a4.48 4.48 0 0 1-1.8-1.36 3.65 3.65 0 0 1-.74-1.96h3.38c.04.4.22.7.54.94.32.24.71.36 1.18.36.42 0 .75-.08.98-.24a.78.78 0 0 0 .36-.66c0-.32-.17-.55-.5-.7a9.28 9.28 0 0 0-1.62-.52 15.2 15.2 0 0 1-2-.58 3.6 3.6 0 0 1-1.38-.98 2.71 2.71 0 0 1-.58-1.82c0-.64.17-1.22.52-1.74.36-.53.88-.95 1.56-1.26.7-.3 1.51-.46 2.46-.46 1.4 0 2.5.35 3.3 1.04.81.7 1.28 1.62 1.4 2.76h-3.16a1.41 1.41 0 0 0-.52-.92 1.73 1.73 0 0 0-1.12-.34c-.4 0-.7.08-.92.24a.7.7 0 0 0-.32.62c0 .32.16.56.5.72.34.16.88.32 1.6.48.82.22 1.5.43 2.02.64.52.2.97.54 1.36 1 .4.46.6 1.07.62 1.84 0 .66-.19 1.24-.56 1.76-.36.51-.89.91-1.58 1.2-.68.3-1.48.44-2.38.44Zm7.53-12.48c-.6 0-1.1-.17-1.48-.52-.37-.36-.56-.8-.56-1.32 0-.53.19-.97.56-1.32a2.1 2.1 0 0 1 1.48-.54c.59 0 1.07.18 1.44.54.39.35.58.8.58 1.32s-.2.96-.58 1.32a2 2 0 0 1-1.44.52Zm1.7 1.16v11.16H95.5V26.02h3.42Zm6.76 11.32c-1.1 0-2.08-.23-2.96-.7a5.2 5.2 0 0 1-2.06-2 6.03 6.03 0 0 1-.74-3.04c0-1.14.25-2.15.76-3.02.5-.88 1.2-1.55 2.08-2.02.88-.46 1.86-.7 2.96-.7 1.1 0 2.08.24 2.96.7a5.14 5.14 0 0 1 2.08 2.02c.5.87.76 1.88.76 3.02 0 1.15-.26 2.16-.78 3.04a5 5 0 0 1-2.1 2c-.88.47-1.87.7-2.96.7Zm0-2.96c.65 0 1.2-.24 1.66-.72.47-.48.7-1.16.7-2.06a2.9 2.9 0 0 0-.68-2.06 2.13 2.13 0 0 0-1.64-.72c-.67 0-1.22.24-1.66.72-.44.47-.66 1.16-.66 2.06 0 .9.21 1.58.64 2.06.44.48.98.72 1.64.72Zm13.65-8.48a4 4 0 0 1 3.12 1.28c.79.84 1.18 2 1.18 3.48v6.52h-3.4v-6.06c0-.74-.19-1.32-.58-1.74-.38-.4-.9-.62-1.56-.62-.65 0-1.17.21-1.56.62-.38.42-.58 1-.58 1.74v6.06h-3.42V26.02h3.42v1.48c.35-.49.82-.88 1.4-1.16a4.43 4.43 0 0 1 1.98-.44Z" fill="#fff"/><path d="M126.81 37.34c-.6 0-1.1-.17-1.48-.52-.37-.36-.56-.8-.56-1.32 0-.53.19-.98.56-1.34a2.1 2.1 0 0 1 1.48-.54 2 2 0 0 1 1.44.54c.39.36.58.81.58 1.34 0 .52-.2.96-.58 1.32a2 2 0 0 1-1.44.52Z" fill="#FFF"/><path d="M140.56 27.4a2.49 2.49 0 0 0-1.1-1.06 3.43 3.43 0 0 0-1.66-.38c-1.1 0-2 .37-2.66 1.1a4.1 4.1 0 0 0-1 2.9c0 1.3.35 2.3 1.04 3.04.7.72 1.67 1.08 2.9 1.08.84 0 1.55-.21 2.12-.64a3.6 3.6 0 0 0 1.28-1.84h-4.34v-2.52h7.44v3.18a6.63 6.63 0 0 1-1.3 2.38 6.7 6.7 0 0 1-2.3 1.78c-.93.45-1.99.68-3.16.68a7.6 7.6 0 0 1-3.72-.9 6.64 6.64 0 0 1-2.54-2.54 7.49 7.49 0 0 1-.9-3.7c0-1.39.3-2.62.9-3.7a6.46 6.46 0 0 1 2.54-2.54 7.36 7.36 0 0 1 3.7-.92c1.68 0 3.1.4 4.24 1.22a5.74 5.74 0 0 1 2.3 3.38h-3.78Zm4.43 4c0-1.15.22-2.15.64-3.02a4.62 4.62 0 0 1 4.28-2.7c.8 0 1.48.16 2.06.48.6.32 1.06.74 1.38 1.26v-1.58h3.42V37h-3.42v-1.58c-.33.52-.8.94-1.4 1.26a4.2 4.2 0 0 1-2.06.48c-.9 0-1.73-.23-2.48-.7a5.07 5.07 0 0 1-1.78-2.02 6.9 6.9 0 0 1-.64-3.04Zm8.36.02c0-.85-.24-1.53-.72-2.02a2.27 2.27 0 0 0-1.72-.74c-.68 0-1.26.25-1.74.74-.46.48-.7 1.15-.7 2 0 .85.24 1.53.7 2.04.48.5 1.06.74 1.74.74.68 0 1.26-.25 1.72-.74.48-.5.72-1.17.72-2.02Zm19.34-5.7c1.38 0 2.49.42 3.3 1.26.82.84 1.24 2 1.24 3.5V37h-3.4v-6.06c0-.72-.2-1.27-.58-1.66-.38-.4-.9-.6-1.56-.6-.67 0-1.2.2-1.58.6-.38.39-.56.94-.56 1.66V37h-3.4v-6.06c0-.72-.2-1.27-.58-1.66-.38-.4-.9-.6-1.56-.6-.67 0-1.2.2-1.58.6-.38.39-.56.94-.56 1.66V37h-3.42V25.84h3.42v1.4c.34-.47.8-.83 1.36-1.1.56-.28 1.2-.42 1.9-.42.84 0 1.59.18 2.24.54.66.36 1.19.87 1.56 1.54a4.49 4.49 0 0 1 3.76-2.08Zm16.65 5.52c0 .32-.02.65-.06 1h-7.74c.05.7.27 1.23.66 1.6.4.36.89.54 1.46.54.85 0 1.45-.36 1.78-1.08h3.64a5 5 0 0 1-1.02 1.98 4.96 4.96 0 0 1-1.82 1.38 5.9 5.9 0 0 1-2.46.5c-1.1 0-2.07-.23-2.92-.7a4.98 4.98 0 0 1-2-2 6.17 6.17 0 0 1-.72-3.04c0-1.16.23-2.17.7-3.04a4.98 4.98 0 0 1 2-2c.85-.47 1.83-.7 2.94-.7a6 6 0 0 1 2.88.68c.84.45 1.5 1.1 1.96 1.94.48.84.72 1.82.72 2.94Zm-3.5-.9c0-.59-.2-1.05-.6-1.4a2.2 2.2 0 0 0-1.5-.52 2.2 2.2 0 0 0-1.46.5c-.39.33-.63.8-.72 1.42h4.28Z" fill="#fff"/><mask id="a" style="mask-type:alpha" maskUnits="userSpaceOnUse" x="0" y="3" width="57" height="57"><path d="M34.05 19.3a5.91 5.91 0 1 1-11.83 0 5.91 5.91 0 0 1 11.83 0Zm0 23.66a5.91 5.91 0 1 1-11.83 0 5.91 5.91 0 0 1 11.83 0Zm0-11.83a5.91 5.91 0 1 0 11.82 0 5.91 5.91 0 0 0-11.82 0ZM16.3 37.05a5.91 5.91 0 1 1 0-11.83 5.91 5.91 0 0 1 0 11.83Z" fill="#79F3DD"/><path fill-rule="evenodd" clip-rule="evenodd" d="M15.59 8.2a17.74 17.74 0 0 1 25.09 0l10.39 10.39a17.74 17.74 0 0 1 0 25.09l-10.4 10.39a17.74 17.74 0 0 1-25.08 0l-10.4-10.4a17.74 17.74 0 0 1 0-25.08l10.4-10.4Zm21.2 3.88 10.4 10.4a12.25 12.25 0 0 1 0 17.31l-10.4 10.4a12.25 12.25 0 0 1-17.32 0l-10.4-10.4a12.25 12.25 0 0 1 0-17.32l10.4-10.4a12.25 12.25 0 0 1 17.32 0Z" fill="#79F3DD"/></mask><g mask="url(#a)"><path fill="#49EDAF" d="m2.35 5.35 25.78 25.79L2.35 56.93l-25.8-25.79z"/><path fill="#F94D4D" d="m28.13 31.13 25.79 25.79L28.13 82.7 2.34 56.9z"/><path fill="#FF843E" d="M28.13-20.44 53.92 5.35 28.13 31.13 2.34 5.35z"/><path fill="#2F82FF" d="M53.92 5.35 79.7 31.14 53.92 56.93l-25.8-25.8z"/></g></svg>