<svg width="72" height="42" viewBox="0 0 72 42" fill="none" xmlns="http://www.w3.org/2000/svg">
<path d="M7.42629 28.87H6.10992C5.69597 28.87 5.489 29.0453 5.489 29.3961V30.0658H7.42629V33.0553H5.489V42H1.26669V33.0553H0V30.0658H1.26669V28.9656C1.26669 26.9885 2.48371 26 4.91774 26H7.42629V28.87Z" fill="#6638FF"/>
<path d="M8.4807 28.87V26H12.852V28.87H8.4807ZM12.7775 42H8.55521V30.0658H12.7775V42Z" fill="#6638FF"/>
<path d="M21.1724 30.0658H21.6195C23.8217 30.0658 24.9229 31.0543 24.9229 33.0314V42H20.7005V33.5815C20.7005 33.2307 20.4936 33.0553 20.0796 33.0553H19.6574C19.2103 33.0553 18.9868 33.2945 18.9868 33.7728V42H14.7645V30.0658H18.9123V31.5964C19.1441 30.576 19.8975 30.0658 21.1724 30.0658Z" fill="#6638FF"/>
<path d="M32.5572 30.0658H36.7049V42H32.4826V40.7085C32.168 41.5695 31.4395 42 30.297 42H29.8499C27.6477 42 26.5466 41.0115 26.5466 39.0344V33.0314C26.5466 31.0543 27.6477 30.0658 29.8499 30.0658H30.297C31.5719 30.0658 32.3253 30.576 32.5572 31.5964V30.0658ZM31.3898 39.0105H31.812C32.2591 39.0105 32.4826 38.7713 32.4826 38.293V33.7728C32.4826 33.2945 32.2591 33.0553 31.812 33.0553H31.3898C30.9759 33.0553 30.7689 33.2307 30.7689 33.5815V38.4843C30.7689 38.8351 30.9759 39.0105 31.3898 39.0105Z" fill="#6638FF"/>
<path d="M45.0878 30.0658H45.5349C47.7371 30.0658 48.8383 31.0543 48.8383 33.0314V42H44.6159V33.5815C44.6159 33.2307 44.409 33.0553 43.995 33.0553H43.5728C43.1257 33.0553 42.9022 33.2945 42.9022 33.7728V42H38.6799V30.0658H42.8277V31.5964C43.0595 30.576 43.8129 30.0658 45.0878 30.0658Z" fill="#6638FF"/>
<path d="M60.4216 34.6816H56.3484V33.5815C56.3484 33.2307 56.1414 33.0553 55.7274 33.0553H55.3052C54.8913 33.0553 54.6843 33.2307 54.6843 33.5815V38.4843C54.6843 38.8351 54.8913 39.0105 55.3052 39.0105H55.7274C56.1414 39.0105 56.3484 38.8351 56.3484 38.4843V37.3842H60.4216V39.0344C60.4216 41.0115 59.2046 42 56.7706 42H54.113C51.679 42 50.462 41.0115 50.462 39.0344V33.0314C50.462 31.0543 51.679 30.0658 54.113 30.0658H56.7706C59.2046 30.0658 60.4216 31.0543 60.4216 33.0314V34.6816Z" fill="#6638FF"/>
<path d="M65.3188 30.0658H68.3489C70.783 30.0658 72 31.0543 72 33.0314V37.0972H65.6665V38.6756C65.6665 39.0264 65.8735 39.2018 66.2875 39.2018H67.3803C67.7943 39.2018 68.0012 39.0105 68.0012 38.6278V37.9581H72V39.0344C72 41.0115 70.783 42 68.3489 42H65.3188C62.8848 42 61.6678 41.0115 61.6678 39.0344V33.0314C61.6678 31.0543 62.8848 30.0658 65.3188 30.0658ZM65.6665 34.8969H68.0012V33.3901C68.0012 33.0394 67.7943 32.864 67.3803 32.864H66.2875C65.8735 32.864 65.6665 33.0394 65.6665 33.3901V34.8969Z" fill="#6638FF"/>
<path d="M13.2886 0.81203V4.57143H9.38391V20.1203H3.87322V4.57143H0V0.81203H13.2886Z" fill="#F2F2F2"/>
<path d="M18.1582 24H15.5131V20.3008H17.8433C18.3471 20.3008 18.746 20.2206 19.0399 20.0602C19.3338 19.8998 19.5857 19.5188 19.7957 18.9173H17.7488L13.4348 5.11278H19.0399L20.9608 14.2556L22.6612 5.11278H28.0459L24.1097 19.8196C23.6689 21.203 22.9971 22.2456 22.0944 22.9474C21.1917 23.6491 19.8796 24 18.1582 24Z" fill="#F2F2F2"/>
<path d="M41.6138 10.9173H36.4495V9.53384C36.4495 9.09273 36.1871 8.87218 35.6623 8.87218H35.1269C34.6021 8.87218 34.3397 9.09273 34.3397 9.53384V15.6993C34.3397 16.1404 34.6021 16.3609 35.1269 16.3609H35.6623C36.1871 16.3609 36.4495 16.1404 36.4495 15.6993V14.3158H41.6138V16.391C41.6138 18.8772 40.0708 20.1203 36.9848 20.1203H33.6154C30.5294 20.1203 28.9864 18.8772 28.9864 16.391V8.84211C28.9864 6.35589 30.5294 5.11278 33.6154 5.11278H36.9848C40.0708 5.11278 41.6138 6.35589 41.6138 8.84211V10.9173Z" fill="#F2F2F2"/>
<path d="M51.6329 5.11278H52.1997C54.9918 5.11278 56.3878 6.35589 56.3878 8.84211V20.1203H51.0346V9.53384C51.0346 9.09273 50.7722 8.87218 50.2474 8.87218H49.712C49.1452 8.87218 48.8618 9.17293 48.8618 9.77444V20.1203H43.5086V0H48.8618V6.73684C49.2607 5.65414 50.1844 5.11278 51.6329 5.11278Z" fill="#F2F2F2"/>
<path d="M63.0754 5.11278H66.9172C70.0032 5.11278 71.5462 6.35589 71.5462 8.84211V13.9549H63.5163V15.9399C63.5163 16.381 63.7787 16.6015 64.3035 16.6015H65.6891C66.2139 16.6015 66.4763 16.3609 66.4763 15.8797V15.0376H71.5462V16.391C71.5462 18.8772 70.0032 20.1203 66.9172 20.1203H63.0754C59.9895 20.1203 58.4465 18.8772 58.4465 16.391V8.84211C58.4465 6.35589 59.9895 5.11278 63.0754 5.11278ZM63.5163 11.188H66.4763V9.29323C66.4763 8.85213 66.2139 8.63158 65.6891 8.63158H64.3035C63.7787 8.63158 63.5163 8.85213 63.5163 9.29323V11.188Z" fill="#F2F2F2"/>
</svg>
