<?xml version="1.0" encoding="utf-8"?>
<!-- Generator: Adobe Illustrator 22.0.0, SVG Export Plug-In . SVG Version: 6.00 Build 0)  -->
<svg version="1.1" id="Layer_1" xmlns="http://www.w3.org/2000/svg" xmlns:xlink="http://www.w3.org/1999/xlink" x="0px" y="0px"
	 viewBox="0 0 867 227" style="enable-background:new 0 0 867 227;" xml:space="preserve">
<style type="text/css">
	.st0{fill:#EB4F45;}
	.st1{fill:#EB533D;}
</style>
<title>logo</title>
<g id="Page-1">
	<g id="Home-Ten-" transform="translate(-393.000000, -62.000000)">
		<g id="logo" transform="translate(393.000000, 62.000000)">
			<polygon id="Path" class="st0" points="421.8,55.2 421.8,67.1 365.8,67.1 365.8,169.7 351.8,169.7 351.8,67.1 295.8,67.1 
				295.8,55.2 			"/>
			<polygon id="Path_1_" class="st0" points="445.5,169.3 445.5,55.2 560,55.2 560,67.1 459.9,67.1 459.9,105.2 554.9,105.2 
				554.9,117.1 459.9,117.1 459.9,157.4 560,157.4 560,169.7 			"/>
			<polygon id="Path_2_" class="st0" points="596.1,169.7 582.1,169.7 582.1,55.2 606.7,55.2 711,155.3 711,55.2 725,55.2 
				725,169.7 705.9,169.7 596.1,67.1 			"/>
		</g>
	</g>
</g>
<path class="st1" d="M77.2,72c0,0.3,0.2,0.7,0.5,0.8l20.9,11.5c0.6,0.3,1.4-0.1,1.4-0.8V2c0-0.7-0.8-1.2-1.4-0.8L1.5,56.7
	C1.2,56.8,1,57.2,1,57.5v110.6c0,0.3,0.2,0.7,0.5,0.8l97.1,56.8c0.6,0.4,1.4-0.1,1.4-0.8V103.5c0-0.3-0.2-0.7-0.5-0.8L40.5,68
	c-0.6-0.4-1.4,0.1-1.4,0.8v46.9c0,0.3,0.2,0.6,0.5,0.8l20.9,12.6c0.6,0.4,1.4-0.1,1.4-0.8v-19.6c0-0.7,0.8-1.2,1.4-0.8l13.3,7.8
	c0.3,0.2,0.5,0.5,0.5,0.8v68.5c0,0.7-0.8,1.2-1.4,0.8l-38-22.2c-0.6-0.4-0.6-1.3,0-1.6l23.7-13.6c0.6-0.4,0.6-1.3,0-1.6l-20.9-12.6
	c-0.3-0.2-0.7-0.2-1,0l-14.2,8.4c-0.6,0.4-1.4-0.1-1.4-0.8V70.8c0-0.3,0.2-0.7,0.5-0.8l51.4-29.4c0.6-0.4,1.4,0.1,1.4,0.8V72z"/>
<path class="st1" d="M116.7,1.1c-0.6-0.4-1.4,0.1-1.4,0.8v81.6c0,0.7,0.8,1.2,1.4,0.8l20.9-11.5c0.3-0.2,0.5-0.5,0.5-0.8V41.3
	c0-0.7,0.8-1.2,1.4-0.8L191,69.9c0.3,0.2,0.5,0.5,0.5,0.8v71.1c0,0.7-0.8,1.2-1.4,0.8l-14.2-8.4c-0.3-0.2-0.7-0.2-1,0l-20.9,12.6
	c-0.6,0.4-0.6,1.3,0,1.6l23.7,13.6c0.6,0.4,0.6,1.3,0,1.6l-38,22.2c-0.6,0.4-1.4-0.1-1.4-0.8v-68.5c0-0.3,0.2-0.6,0.5-0.8l13.3-7.8
	c0.6-0.4,1.4,0.1,1.4,0.8v19.6c0,0.7,0.8,1.2,1.4,0.8l20.9-12.6c0.3-0.2,0.5-0.5,0.5-0.8V68.8c0-0.7-0.8-1.2-1.4-0.8l-59,34.7
	c-0.3,0.2-0.5,0.5-0.5,0.8v121.4c0,0.7,0.8,1.2,1.4,0.8l97.1-56.8c0.3-0.2,0.5-0.5,0.5-0.8V57.5c0-0.3-0.2-0.7-0.5-0.8L116.7,1.1z"
	/>
</svg>
